<svg xmlns="http://www.w3.org/2000/svg" xmlns:xlink="http://www.w3.org/1999/xlink" width="24" height="25" viewBox="0 0 24 25"><defs><path id="a" d="M1238.72 5483.6v-3.67h1.41v3.67h3.54v1.47h-3.54v3.67h-1.41v-3.67h-3.54v-1.47zm-4.31-8.3h-1.68c.62.54 1.92 1.7 1.92 3.9 0 2.13-1.13 3.14-2.27 4.1-.35.37-.75.77-.75 1.4 0 .64.4.99.7 1.25l.97.8c1.19 1.07 2.27 2.06 2.27 4.05 0 2.71-2.46 5.46-7.1 5.46-3.9 0-5.8-2-5.8-4.13 0-1.04.5-2.51 2.08-3.53 1.67-1.1 3.94-1.24 5.15-1.32-.37-.52-.8-1.07-.8-1.97 0-.49.13-.78.27-1.12-.3.03-.6.06-.87.06a4.41 4.41 0 0 1-4.47-4.54c0-1.33.56-2.8 1.72-3.87a7.01 7.01 0 0 1 4.83-1.58h5.55zm-3.59 12.81c-.22-.03-.35-.03-.62-.03-.24 0-1.7.06-2.83.47-.6.23-2.32.92-2.32 2.97 0 2.05 1.86 3.52 4.75 3.52 2.58 0 3.96-1.33 3.96-3.12 0-1.47-.89-2.25-2.94-3.8zm1.46-7.6c0-2.07-1.16-5.3-3.4-5.3-.7 0-1.46.37-1.89.95a3.5 3.5 0 0 0-.6 2.14c0 1.93 1.06 5.14 3.38 5.14.67 0 1.4-.35 1.83-.81.62-.67.68-1.59.68-2.11z"/></defs><use fill="#fff" xlink:href="#a" transform="translate(-1221 -5473)"/></svg>