<svg xmlns="http://www.w3.org/2000/svg" xmlns:xlink="http://www.w3.org/1999/xlink" width="19" height="25" viewBox="0 0 19 25"><defs><path id="a" d="M1283.56 5490.5h-5.3c-.74 0-1.36-.26-1.88-.8a2.66 2.66 0 0 1-.77-1.93v-1.93h7.55c.69 0 1.27-.25 1.76-.75s.73-1.1.73-1.8-.24-1.3-.73-1.8a2.38 2.38 0 0 0-1.76-.75h-7.55v-3.99c0-.75-.27-1.4-.79-1.94a2.52 2.52 0 0 0-1.88-.8 2.68 2.68 0 0 0-2.7 2.75v11.02c0 2.26.79 4.2 2.36 5.8a7.62 7.62 0 0 0 5.66 2.42h5.3c.74 0 1.37-.27 1.9-.81.52-.54.79-1.18.79-1.94 0-.75-.27-1.4-.8-1.94a2.56 2.56 0 0 0-1.89-.81z"/></defs><use fill="#fff" xlink:href="#a" transform="translate(-1269 -5473)"/></svg>